<?xml version="1.0" encoding="UTF-8"?>
<svg width="128px" height="128px" viewBox="0 0 128 128" version="1.1" xmlns="http://www.w3.org/2000/svg" xmlns:xlink="http://www.w3.org/1999/xlink">
    <title>PCCA Logo</title>
    <g id="logo" stroke="none" stroke-width="1" fill="none" fill-rule="evenodd">
        <path d="M36.4176155,7.63995821 L36.4176155,7.63995821 C33.6665464,8.37118298 31.1560033,9.81267617 29.1376155,11.8199582 L29.1376155,11.8199582 C15.9068717,25.0570191 6.39170887,41.5421508 1.54761547,59.6199582 L1.54761547,59.6199582 C0.817461511,62.3723578 0.817461511,65.2675586 1.54761547,68.0199582 L1.54761547,68.0199582 C6.39170887,86.0977656 15.9068717,102.582897 29.1376155,115.819958 L29.1376155,115.819958 C31.1536943,117.834517 33.664444,119.283027 36.4176155,120.019958 L36.4176155,120.019958 C54.4857773,124.859893 73.5094536,124.859893 91.5776155,120.019958 L91.5776155,120.019958 C94.3307869,119.283027 96.8415366,117.834517 98.8576155,115.819958 L98.8576155,115.819958 C112.088359,102.582897 121.603522,86.0977656 126.447615,68.0199582 L126.447615,68.0199582 C127.177769,65.2675586 127.177769,62.3723578 126.447615,59.6199582 L126.447615,59.6199582 C121.603522,41.5421508 112.088359,25.0570191 98.8576155,11.8199582 L98.8576155,11.8199582 C96.8415366,9.80539931 94.3307869,8.35688988 91.5776155,7.61995821 L91.5776155,7.61995821 C73.5076988,2.78657446 54.4840224,2.79347209 36.4176155,7.63995821 Z" id="hexagon" fill="#8767F2" fill-rule="nonzero"></path>
        <path d="M113.737615,91.2699582 L113.567615,91.1199582 C112.677615,90.2199582 109.777615,86.4299582 109.257615,85.7699582 C110.662929,86.0514559 112.112334,86.0275833 113.507615,85.6999582 C112.907615,85.8699582 108.227615,82.3499582 106.507615,78.8499582 C106.705853,78.6823851 106.874827,78.4829959 107.007615,78.2599582 C108.50275,78.2379081 109.98348,77.9640744 111.387615,77.4499582 C110.070069,77.0560703 108.857185,76.3727554 107.837615,75.4499582 C108.417615,73.3099582 108.997615,71.2899582 109.557615,69.3199582 C110.557615,65.9499582 111.367615,63.0399582 111.977615,60.3199582 C112.587615,57.5999582 111.277615,56.7699582 110.677615,56.5499582 C109.233051,56.08495 107.73344,55.8125992 106.217615,55.7399582 C106.923126,53.9047789 107.435884,52.0012082 107.747615,50.0599582 C107.347615,50.9099582 107.017615,51.1899582 106.597615,51.2999582 C107.203921,47.6646786 107.508293,43.9854519 107.507615,40.2999582 C107.507615,35.5499582 103.967615,27.5599582 102.387615,24.2999582 C101.457615,22.4199582 103.897615,21.2999582 103.897615,21.2999582 C100.822953,21.0579571 97.7487979,21.7740956 95.0976155,23.3499582 C95.1109204,22.6039691 95.3326039,21.8765701 95.7376155,21.2499582 L89.2676155,25.8499582 C89.6081764,25.1259986 90.0061126,24.4304462 90.4576155,23.7699582 C90.4576155,23.7699582 87.1776155,25.8199582 86.0976155,26.5199582 C83.5276155,28.2099582 82.6876155,29.9999582 81.0976155,31.7799582 C80.7976155,32.1099582 81.0976155,29.2999582 81.0976155,29.2999582 L75.4376155,38.8199582 C73.321649,37.4938259 71.3799039,35.9081793 69.6576155,34.0999582 C69.7888237,35.4666917 70.0946481,36.8109749 70.5676155,38.0999582 C70.5676155,38.0999582 65.2076155,36.4499582 63.9976155,33.2199582 C62.7876155,36.4499582 57.4276155,38.1099582 57.4276155,38.1099582 C57.9005828,36.8209749 58.2064072,35.4766917 58.3376155,34.1099582 C56.6147295,35.9146637 54.6730101,37.4969299 52.5576155,38.8199582 L46.8376155,29.2899582 C46.8376155,29.2899582 47.1876155,32.0999582 46.8376155,31.7699582 C45.2576155,29.9899582 44.4176155,28.1999582 41.8376155,26.5099582 C40.7576155,25.7999582 37.4276155,23.8599582 37.4276155,23.8599582 C37.8791183,24.5204462 38.2770545,25.2159986 38.6176155,25.9399582 L32.1476155,21.3399582 C32.552627,21.9665701 32.7743105,22.6939691 32.7876155,23.4399582 C30.1364331,21.8640956 27.0622775,21.1479571 23.9876155,21.3899582 C23.9876155,21.3899582 26.4276155,22.4699582 25.4976155,24.3899582 C23.9176155,27.5999582 20.3776155,35.5899582 20.3776155,40.3899582 C20.3769375,44.0754519 20.6813099,47.7546786 21.2876155,51.3899582 C20.8676155,51.2799582 20.5376155,50.9999582 20.1376155,50.1499582 C20.449386,52.08795 20.9621521,53.988201 21.6676155,55.8199582 C20.1322245,55.900102 18.6133141,56.1756566 17.1476155,56.6399582 C16.5476155,56.8599582 15.2276155,57.6399582 15.8476155,60.4099582 C16.4676155,63.1799582 17.2976155,66.0299582 18.2676155,69.4099582 C18.8376155,71.4099582 19.4176155,73.4099582 20.0076155,75.5799582 C18.9982944,76.4957586 17.8000272,77.178532 16.4976155,77.5799582 C17.8838468,78.09494 19.348887,78.3656172 20.8276155,78.3799582 C20.9651329,78.6200001 21.1446501,78.8333884 21.3576155,79.0099582 C19.6776155,82.5099582 15.0276155,86.0099582 14.4276155,85.8299582 C15.8228968,86.1575833 17.2723015,86.1814559 18.6776155,85.8999582 C18.1176155,86.6099582 14.8076155,90.8999582 14.1976155,91.3999582 C20.4876155,91.8699582 23.8776155,90.2699582 23.8776155,90.2699582 C23.8776155,90.2699582 23.7976155,91.6799582 20.7176155,95.8199582 C24.7515711,96.1839475 28.8087029,96.2140499 32.8476155,95.9099582 C31.2693713,96.9175156 29.744021,98.005621 28.2776155,99.1699582 C31.8261223,99.6774058 35.4033859,99.9579755 38.9876155,100.009958 L37.0976155,102.169958 L44.4776155,102.919958 L42.9376155,103.239958 L44.4876155,103.779958 C45.4897633,104.127203 46.5157918,104.401256 47.5576155,104.599958 L44.5576155,104.739958 L48.1176155,105.469958 L50.9276155,106.039958 L48.2076155,106.489958 L51.0276155,106.919958 C51.1176155,106.919958 52.5776155,107.159958 53.8176155,107.289958 L51.1076155,108.289958 L54.1076155,108.179958 L55.5876155,108.179958 L53.7276155,108.749958 L55.9476155,108.979958 C55.9476155,108.979958 56.7976155,109.069958 57.6076155,109.099958 L56.4276155,109.579958 C56.9576155,109.629958 57.4876155,109.689958 58.0276155,109.719958 L64.0276155,110.279958 L70.0276155,109.719958 C70.5676155,109.719958 71.0976155,109.629958 71.6276155,109.579958 L70.4476155,109.099958 C71.2576155,109.099958 72.0676155,108.989958 72.1076155,108.979958 L74.3276155,108.749958 L72.4676155,108.179958 L73.9476155,108.179958 L76.9476155,108.289958 L74.2376155,107.289958 C75.4776155,107.159958 76.9376155,106.939958 77.0276155,106.919958 L79.8476155,106.489958 L77.1276155,106.039958 L79.9376155,105.469958 L83.4976155,104.739958 L80.4976155,104.599958 C81.5394391,104.401256 82.5654677,104.127203 83.5676155,103.779958 L85.1176155,103.239958 L83.5776155,102.919958 L90.9576155,102.169958 L88.9976155,100.039958 C92.581845,99.9879755 96.1591086,99.7074058 99.7076155,99.1999582 C98.2412099,98.035621 96.7158596,96.9475156 95.1376155,95.9399582 C99.1806729,96.2346261 103.241173,96.1944894 107.277615,95.8199582 C104.197615,91.6499582 104.057615,90.1099582 104.057615,90.1099582 C104.057615,90.1099582 107.447615,91.7399582 113.737615,91.2699582 Z M84.3676155,44.5399582 C86.5576155,41.8199582 96.8176155,28.7199582 98.7876155,24.8799582 C98.8722391,24.7129486 99.0386991,24.6029779 99.2255189,24.5906601 C99.4123387,24.5783423 99.5917965,24.6655052 99.6976155,24.8199582 C103.86184,30.8823044 105.92059,38.1441391 105.557615,45.4899582 C105.339629,48.8927141 104.854806,52.273102 104.107615,55.5999582 C103.357615,55.5999582 102.557615,55.5999582 101.707615,55.5999582 C100.707615,55.5999582 99.5876155,55.5999582 98.4776155,55.6599582 C96.7794014,53.7091109 94.9121413,51.912124 92.8976155,50.2899582 C90.2398047,48.4545074 87.4487203,46.8199682 84.5476155,45.3999582 C84.3880263,45.32979 84.2721296,45.1868923 84.236415,45.016256 C84.2007004,44.8456196 84.2495619,44.6682377 84.3676155,44.5399582 Z M22.4376155,45.4799582 C22.0768556,38.1375102 24.1355055,30.87954 28.2976155,24.8199582 C28.4050573,24.666325 28.5856692,24.5808834 28.7725921,24.595262 C28.959515,24.6096407 29.1249345,24.7217002 29.2076155,24.8899582 C31.2076155,28.7299582 41.4376155,41.7799582 43.6276155,44.5499582 C43.7255714,44.6768253 43.7621062,44.8406521 43.7273359,44.9971183 C43.6925656,45.1535845 43.590084,45.2865187 43.4476155,45.3599582 C40.5465106,46.7799682 37.7554262,48.4145074 35.0976155,50.2499582 C33.0807682,51.8731523 31.2133119,53.6736746 29.5176155,55.6299582 C28.3876155,55.6299582 27.2776155,55.5599582 26.2276155,55.5599582 C25.3976155,55.5599582 24.6176155,55.5599582 23.8876155,55.5599582 C23.141975,52.2429458 22.6571605,48.872649 22.4376155,45.4799582 L22.4376155,45.4799582 Z M17.4376155,59.9399582 C17.3076155,59.3599582 17.1576155,58.2499582 17.7176155,58.0399582 C19.4576155,57.4099582 22.6676155,57.1599582 26.1876155,57.1599582 C29.4076155,57.1599582 32.8976155,57.3699582 35.7576155,57.6499582 C36.7576155,57.7599582 37.7576155,57.8699582 38.5676155,57.9899582 L39.2376155,58.0999582 L39.2376155,58.0999582 C48.6176155,59.6899582 60.9376155,66.8199582 63.9976155,66.8199582 C67.0576155,66.8199582 79.3576155,59.6799582 88.6776155,58.0899582 L88.6776155,58.0899582 L89.3476155,57.9799582 C90.1776155,57.8599582 91.1276155,57.7499582 92.1576155,57.6399582 C95.0276155,57.3599582 98.5076155,57.1499582 101.727615,57.1499582 C105.247615,57.1499582 108.457615,57.3999582 110.197615,58.0299582 C110.757615,58.2399582 110.607615,59.3499582 110.477615,59.9299582 C109.397615,64.7199582 107.527615,70.4199582 105.717615,77.3399582 C105.627615,77.6999582 104.907615,78.0299582 104.467615,78.0299582 C104.267615,78.0299582 104.127615,77.9599582 104.127615,77.7999582 C104.127615,71.3499582 106.457615,64.5199582 100.857615,61.9899582 C99.0127809,61.4065865 97.081079,61.1460943 95.1476155,61.2199582 C94.4263939,61.2170413 93.7054824,61.2504169 92.9876155,61.3199582 C81.7276155,62.4899582 73.8876155,65.4899582 70.4776155,69.6699582 C69.1576155,71.2899582 69.8176155,74.4999582 70.1476155,75.9699582 C70.3976155,77.0499582 70.5176155,77.9699582 71.0376155,80.3799582 C71.0376155,80.4799582 70.9476155,80.5199582 70.7676155,80.5199582 C70.2511751,80.501487 69.7482628,80.3499244 69.3076155,80.0799582 C68.1476155,78.7499582 67.4776155,73.9999582 66.1376155,72.4199582 C64.9331085,71.2745597 63.0421225,71.2745597 61.8376155,72.4199582 C60.4976155,73.9999582 59.8376155,78.7499582 58.6676155,80.0799582 C58.2283122,80.3529119 57.7245863,80.5047197 57.2076155,80.5199582 C57.0376155,80.5199582 56.9176155,80.5199582 56.9376155,80.3799582 C57.4576155,77.9299582 57.5876155,77.0499582 57.8276155,75.9699582 C58.1576155,74.4999582 58.8276155,71.2899582 57.5076155,69.6699582 C54.0776155,65.4999582 46.2276155,62.4999582 34.9976155,61.3299582 C34.2797485,61.2604169 33.558837,61.2270413 32.8376155,61.2299582 C30.9041519,61.1560943 28.97245,61.4165865 27.1276155,61.9999582 C21.5276155,64.5299582 23.8676155,71.3599582 23.8676155,77.8099582 C23.8676155,77.9699582 23.7276155,78.0399582 23.5276155,78.0399582 C23.0876155,78.0399582 22.3576155,77.7099582 22.2676155,77.3499582 C20.4376155,70.4299582 18.5676155,64.7299582 17.4776155,59.9399582 L17.4376155,59.9399582 Z M40.5876155,91.9399582 C32.6576155,91.9399582 28.3476155,88.6899582 25.9776155,84.6699582 C25.0700965,83.0709918 24.3965741,81.350142 23.9776155,79.5599582 C24.8148635,79.3961713 25.4259858,78.672802 25.4476155,77.8199582 C25.4476155,76.2499582 25.3176155,74.6799582 25.1876155,73.1699582 C24.7476155,67.9199582 24.6576155,64.8799582 27.7576155,63.4799582 C29.3941455,62.9881458 31.0996586,62.7652471 32.8076155,62.8199582 C33.5576155,62.8199582 34.2676155,62.8199582 34.8076155,62.8999582 C45.4376155,64.0399582 53.0476155,66.8199582 56.2376155,70.6999582 C56.6276155,71.1899582 56.9576155,72.4399582 56.2376155,75.6199582 C56.1176155,76.1499582 56.0276155,76.6199582 55.9176155,77.2099582 C55.8076155,77.7999582 55.6276155,78.7499582 55.3476155,80.0599582 C55.2355158,80.5603994 55.3610183,81.0845571 55.6876155,81.4799582 C55.9847476,81.8414048 56.4122494,82.0713217 56.8776155,82.1199582 C54.4876155,86.8199582 49.8076155,91.5199582 40.6276155,91.9699582 L40.5876155,91.9399582 Z M73.5276155,97.5599582 C71.9037785,98.3053842 70.1522607,98.7330804 68.3676155,98.8199582 C66.926846,98.8342974 65.5003102,98.5339741 64.1876155,97.9399582 C64.1183917,97.9101493 64.0542777,97.8696562 63.9976155,97.8199582 C63.9402776,97.866122 63.8761996,97.9032198 63.8076155,97.9299582 C62.4949207,98.5239741 61.068385,98.8242974 59.6276155,98.8099582 C57.8327121,98.7439238 56.067283,98.333122 54.4276155,97.5999582 C54.3092085,97.5516034 54.2156217,97.4570816 54.1684464,97.3381999 C54.1212711,97.2193181 54.1245821,97.0863448 54.1776155,96.9699582 C54.2262663,96.8515948 54.3201679,96.7575592 54.4384617,96.7087395 C54.5567555,96.6599198 54.6896466,96.6603585 54.8076155,96.7099582 C56.3273221,97.3883581 57.9642603,97.7653293 59.6276155,97.8199582 C60.9381493,97.8298549 62.235033,97.5534139 63.4276155,97.0099582 C63.4783209,96.99076 63.5133828,96.9440109 63.5176155,96.8899582 L63.5176155,91.3199582 C63.5119378,91.2935937 63.5119378,91.2663227 63.5176155,91.2399582 L59.9976155,87.7299582 C59.7909491,87.5240099 59.7290015,87.2136991 59.8407512,86.9441852 C59.9525008,86.6746713 60.2158532,86.499241 60.5076155,86.4999582 L67.4476155,86.4999582 C67.7467154,86.4820364 68.0256491,86.6512274 68.1479616,86.9247628 C68.2702742,87.1982981 68.2103943,87.5189912 67.9976155,87.7299582 L64.4876155,91.2399582 C64.4932931,91.2663227 64.4932931,91.2935937 64.4876155,91.3199582 L64.4876155,96.9099582 C64.4918482,96.9640109 64.52691,97.01076 64.5776155,97.0299582 C65.7701979,97.5734139 67.0670816,97.8498549 68.3776155,97.8399582 C70.0429729,97.7758717 71.6799962,97.388692 73.1976155,96.6999582 C73.3155844,96.6503585 73.4484754,96.6499198 73.5667692,96.6987395 C73.685063,96.7475592 73.7789646,96.8415948 73.8276155,96.9599582 C73.8801167,97.0776194 73.882013,97.2116746 73.8328609,97.3307738 C73.7837089,97.449873 73.6878188,97.5435719 73.5676155,97.5899582 L73.5276155,97.5599582 Z M87.2776155,91.9399582 C78.1376155,91.5199582 73.4476155,86.8199582 71.0576155,82.1199582 C71.525602,82.0707256 71.956018,81.8411704 72.2576155,81.4799582 C72.5766002,81.0769081 72.7010597,80.553446 72.5976155,80.0499582 C72.3176155,78.7499582 72.1576155,77.8999582 72.0276155,77.2099582 C71.8976155,76.5199582 71.8176155,76.1499582 71.6976155,75.6199582 C70.9876155,72.4399582 71.3076155,71.1899582 71.6976155,70.6999582 C74.8876155,66.8199582 82.4976155,64.0399582 93.1376155,62.9299582 C93.6676155,62.9299582 94.3776155,62.8499582 95.1376155,62.8499582 C96.8434622,62.7806761 98.5491889,62.990092 100.187615,63.4699582 C103.287615,64.8699582 103.187615,67.9099582 102.757615,73.1599582 C102.637615,74.6699582 102.507615,76.2399582 102.507615,77.8099582 C102.508335,78.6855946 103.135772,79.4351498 103.997615,79.5899582 C103.578262,81.3800191 102.904761,83.1008138 101.997615,84.6999582 C99.5476155,88.7199582 95.2376155,91.9699582 87.3176155,91.9699582 L87.2776155,91.9399582 Z" id="cat" fill="#FFFFFF" fill-rule="nonzero"></path>
    </g>
</svg>