<?xml version="1.0" encoding="utf-8"?>
<!-- Generator: Adobe Illustrator 26.0.0, SVG Export Plug-In . SVG Version: 6.00 Build 0)  -->
<svg version="1.1" id="Layer_1" xmlns="http://www.w3.org/2000/svg" xmlns:xlink="http://www.w3.org/1999/xlink" x="0px" y="0px"
	 viewBox="0 0 372.4 128" style="enable-background:new 0 0 372.4 128;" xml:space="preserve">
<style type="text/css">
	.st0{fill:#8767F2;}
	.st1{fill:#FFFFFF;}
</style>
<g id="logo">
	<path id="hexagon" class="st0" d="M36.4,7.6L36.4,7.6c-2.8,0.7-5.3,2.2-7.3,4.2l0,0C15.9,25.1,6.4,41.5,1.5,59.6l0,0
		c-0.7,2.8-0.7,5.6,0,8.4l0,0c4.8,18.1,14.4,34.6,27.6,47.8l0,0c2,2,4.5,3.5,7.3,4.2l0,0c18.1,4.8,37.1,4.8,55.2,0l0,0
		c2.8-0.7,5.3-2.2,7.3-4.2l0,0c13.2-13.2,22.7-29.7,27.6-47.8l0,0c0.7-2.8,0.7-5.6,0-8.4l0,0c-4.8-18.1-14.4-34.6-27.6-47.8l0,0
		c-2-2-4.5-3.5-7.3-4.2l0,0C73.5,2.8,54.5,2.8,36.4,7.6z"/>
	<path id="cat" class="st1" d="M113.7,91.3l-0.2-0.2c-0.9-0.9-3.8-4.7-4.3-5.3c1.4,0.3,2.9,0.3,4.2-0.1c-0.6,0.2-5.3-3.3-7-6.8
		c0.2-0.2,0.4-0.4,0.5-0.6c1.5,0,3-0.3,4.4-0.8c-1.3-0.4-2.5-1.1-3.5-2c0.6-2.1,1.2-4.2,1.7-6.1c1-3.4,1.8-6.3,2.4-9
		s-0.7-3.5-1.3-3.8c-1.4-0.5-2.9-0.7-4.5-0.8c0.7-1.8,1.2-3.7,1.5-5.7c-0.4,0.8-0.7,1.1-1.1,1.2c0.6-3.6,0.9-7.3,0.9-11
		c0-4.8-3.5-12.7-5.1-16c-0.9-1.9,1.5-3,1.5-3c-3.1-0.2-6.1,0.5-8.8,2.1c0-0.7,0.2-1.5,0.6-2.1l-6.5,4.6c0.3-0.7,0.7-1.4,1.2-2.1
		c0,0-3.3,2-4.4,2.8c-2.6,1.7-3.4,3.5-5,5.3c-0.3,0.3,0-2.5,0-2.5l-5.7,9.5c-2.1-1.3-4.1-2.9-5.8-4.7c0.1,1.4,0.4,2.7,0.9,4
		c0,0-5.4-1.6-6.6-4.9c-1.2,3.2-6.6,4.9-6.6,4.9c0.5-1.3,0.8-2.6,0.9-4c-1.7,1.8-3.7,3.4-5.8,4.7l-5.7-9.5c0,0,0.3,2.8,0,2.5
		c-1.6-1.8-2.4-3.6-5-5.3c-1.1-0.7-4.4-2.6-4.4-2.6c0.5,0.7,0.8,1.4,1.2,2.1l-6.5-4.6c0.4,0.6,0.6,1.4,0.6,2.1
		c-2.7-1.6-5.7-2.3-8.8-2.1c0,0,2.4,1.1,1.5,3c-1.6,3.2-5.1,11.2-5.1,16c0,3.7,0.3,7.4,0.9,11c-0.4-0.1-0.8-0.4-1.1-1.2
		c0.3,1.9,0.8,3.8,1.5,5.7c-1.5,0.1-3.1,0.4-4.5,0.8c-0.6,0.2-1.9,1-1.3,3.8s1.4,5.6,2.4,9c0.6,2,1.1,4,1.7,6.2
		c-1,0.9-2.2,1.6-3.5,2c1.4,0.5,2.9,0.8,4.3,0.8c0.1,0.2,0.3,0.5,0.5,0.6c-1.7,3.5-6.3,7-6.9,6.8c1.4,0.3,2.8,0.4,4.3,0.1
		c-0.6,0.7-3.9,5-4.5,5.5c6.3,0.5,9.7-1.1,9.7-1.1s-0.1,1.4-3.2,5.6c4,0.4,8.1,0.4,12.1,0.1c-1.6,1-3.1,2.1-4.6,3.3
		c3.5,0.5,7.1,0.8,10.7,0.8l-1.9,2.2l7.4,0.8l-1.5,0.3l1.5,0.5c1,0.3,2,0.6,3.1,0.8l-3,0.1l3.6,0.7l2.8,0.6l-2.7,0.5l2.8,0.4
		c0.1,0,1.5,0.2,2.8,0.4l-2.7,1l3-0.1h1.5l-1.9,0.6l2.2,0.2c0,0,0.8,0.1,1.7,0.1l-1.2,0.5c0.5,0.1,1.1,0.1,1.6,0.1l6,0.6l6-0.6
		c0.5,0,1.1-0.1,1.6-0.1l-1.2-0.5c0.8,0,1.6-0.1,1.7-0.1l2.2-0.2l-1.9-0.6h1.5l3,0.1l-2.7-1c1.2-0.1,2.7-0.3,2.8-0.4l2.8-0.4
		l-2.7-0.5l2.8-0.6l3.6-0.7l-3-0.1c1-0.2,2.1-0.5,3.1-0.8l1.6-0.5l-1.5-0.3l7.4-0.8l-2-2.1c3.6-0.1,7.2-0.3,10.7-0.8
		c-1.5-1.2-3-2.3-4.6-3.3c4,0.3,8.1,0.3,12.1-0.1c-3.1-4.2-3.2-5.7-3.2-5.7S107.4,91.7,113.7,91.3z M84.4,44.5
		c2.2-2.7,12.4-15.8,14.4-19.7c0.1-0.2,0.3-0.3,0.4-0.3s0.4,0.1,0.5,0.2c4.2,6.1,6.2,13.3,5.9,20.7c-0.2,3.4-0.7,6.8-1.5,10.1
		c-0.8,0-1.5,0-2.4,0c-1,0-2.1,0-3.2,0.1c-1.7-2-3.6-3.7-5.6-5.4c-2.7-1.8-5.4-3.5-8.3-4.9c-0.2-0.1-0.3-0.2-0.3-0.4
		C84.2,44.8,84.2,44.7,84.4,44.5z M22.4,45.5c-0.4-7.3,1.7-14.6,5.9-20.7c0.1-0.2,0.3-0.2,0.5-0.2c0.2,0,0.4,0.1,0.4,0.3
		c2,3.8,12.2,16.9,14.4,19.7c0.1,0.1,0.1,0.3,0.1,0.4c0,0.2-0.1,0.3-0.3,0.4c-2.9,1.4-5.7,3.1-8.4,4.9c-2,1.6-3.9,3.4-5.6,5.4
		c-1.1,0-2.2-0.1-3.3-0.1c-0.8,0-1.6,0-2.3,0C23.1,52.2,22.7,48.9,22.4,45.5L22.4,45.5z M17.4,59.9c-0.1-0.6-0.3-1.7,0.3-1.9
		c1.7-0.6,5-0.9,8.5-0.9c3.2,0,6.7,0.2,9.6,0.5c1,0.1,2,0.2,2.8,0.3l0.7,0.1l0,0c9.4,1.6,21.7,8.7,24.8,8.7s15.4-7.1,24.7-8.7l0,0
		l0.7-0.1c0.8-0.1,1.8-0.2,2.8-0.3c2.9-0.3,6.3-0.5,9.6-0.5c3.5,0,6.7,0.2,8.5,0.9c0.6,0.2,0.4,1.3,0.3,1.9
		c-1.1,4.8-2.9,10.5-4.8,17.4c-0.1,0.4-0.8,0.7-1.2,0.7c-0.2,0-0.3-0.1-0.3-0.2c0-6.4,2.3-13.3-3.3-15.8c-1.8-0.6-3.8-0.8-5.7-0.8
		c-0.7,0-1.4,0-2.2,0.1c-11.3,1.2-19.1,4.2-22.5,8.4c-1.3,1.6-0.7,4.8-0.3,6.3c0.2,1.1,0.4,2,0.9,4.4c0,0.1-0.1,0.1-0.3,0.1
		c-0.5,0-1-0.2-1.5-0.4c-1.2-1.3-1.8-6.1-3.2-7.7c-1.2-1.1-3.1-1.1-4.3,0c-1.3,1.6-2,6.3-3.2,7.7c-0.4,0.3-0.9,0.4-1.5,0.4
		c-0.2,0-0.3,0-0.3-0.1c0.5-2.5,0.7-3.3,0.9-4.4c0.3-1.5,1-4.7-0.3-6.3c-3.4-4.2-11.3-7.2-22.5-8.3c-0.7-0.1-1.4-0.1-2.2-0.1
		c-1.9-0.1-3.9,0.2-5.7,0.8c-5.6,2.5-3.3,9.4-3.3,15.8c0,0.2-0.1,0.2-0.3,0.2c-0.4,0-1.2-0.3-1.3-0.7C20.4,70.4,18.6,64.7,17.4,59.9
		L17.4,59.9z M40.6,91.9c-7.9,0-12.2-3.2-14.6-7.3c-0.9-1.6-1.6-3.3-2-5.1c0.8-0.2,1.4-0.9,1.5-1.7c0-1.6-0.1-3.1-0.3-4.7
		c-0.4-5.2-0.5-8.3,2.6-9.7c1.6-0.5,3.3-0.7,5.1-0.7c0.8,0,1.5,0,2,0.1C45.4,64,53,66.8,56.2,70.7c0.4,0.5,0.7,1.7,0,4.9
		c-0.1,0.5-0.2,1-0.3,1.6c-0.1,0.6-0.3,1.5-0.6,2.8c-0.1,0.5,0,1,0.3,1.4c0.3,0.4,0.7,0.6,1.2,0.6C54.5,86.8,49.8,91.5,40.6,91.9
		L40.6,91.9z M73.5,97.6c-1.6,0.7-3.4,1.2-5.2,1.3c-1.4,0-2.9-0.3-4.2-0.9c-0.1,0-0.1-0.1-0.2-0.1c-0.1,0-0.1,0.1-0.2,0.1
		c-1.3,0.6-2.7,0.9-4.2,0.9c-1.8-0.1-3.6-0.5-5.2-1.2c-0.1,0-0.2-0.1-0.3-0.3c0-0.1,0-0.3,0-0.4c0-0.1,0.1-0.2,0.3-0.3s0.3,0,0.4,0
		c1.5,0.7,3.2,1.1,4.8,1.1c1.3,0,2.6-0.3,3.8-0.8c0.1,0,0.1-0.1,0.1-0.1v-5.6c0,0,0-0.1,0-0.1L60,87.7c-0.2-0.2-0.3-0.5-0.2-0.8
		c0.1-0.3,0.4-0.4,0.7-0.4h6.9c0.3,0,0.6,0.2,0.7,0.4c0.1,0.3,0.1,0.6-0.2,0.8l-3.5,3.5c0,0,0,0.1,0,0.1v5.6c0,0.1,0,0.1,0.1,0.1
		c1.2,0.5,2.5,0.8,3.8,0.8c1.7-0.1,3.3-0.5,4.8-1.1c0.1,0,0.3-0.1,0.4,0s0.2,0.1,0.3,0.3c0.1,0.1,0.1,0.3,0,0.4
		C73.8,97.4,73.7,97.5,73.5,97.6L73.5,97.6z M87.3,91.9c-9.1-0.4-13.8-5.1-16.2-9.8c0.5,0,0.9-0.3,1.2-0.6c0.3-0.4,0.4-0.9,0.3-1.4
		c-0.3-1.3-0.4-2.2-0.6-2.8c-0.1-0.7-0.2-1.1-0.3-1.6c-0.7-3.2-0.4-4.4,0-4.9c3.2-3.9,10.8-6.7,21.4-7.8c0.5,0,1.2-0.1,2-0.1
		c1.7-0.1,3.4,0.1,5,0.6c3.1,1.4,3,4.4,2.6,9.7c-0.1,1.5-0.2,3.1-0.2,4.7c0,0.9,0.6,1.6,1.5,1.8c-0.4,1.8-1.1,3.5-2,5.1
		C99.5,88.7,95.2,92,87.3,91.9L87.3,91.9z"/>
</g>
<g>
	<path class="st0" d="M180.3,9.9c13.3,0,20.5,6.7,20.5,19.3s-7.2,19.3-20.5,19.3h-23.7v19.1c0,3-1.6,4.7-4.3,4.7
		c-2.8,0-4.4-1.8-4.4-4.7v-53c0-3,1.8-4.7,4.8-4.7H180.3z M179.4,40.5c8,0,12.4-3.9,12.4-11.3c0-7.4-4.3-11.3-12.4-11.3h-22.8v22.5
		H179.4z"/>
	<path class="st0" d="M278.6,60.6C273.5,68,264.2,73,252.3,73c-18.9,0-32.1-13-32.1-32.1s13.1-32.1,32.1-32.1
		c10.8,0,19.6,4.1,25.3,11.3c0.6,0.7,0.9,1.7,0.9,2.8c0,2.5-1.8,4.3-4.3,4.3c-1.6,0-2.8-0.6-3.6-1.8c-4.1-5.4-10.4-8.5-18.3-8.5
		c-13.8,0-23.2,9.8-23.2,24c0,14.2,9.4,24,23.2,24c8.3,0,14.8-3.3,19-9.4c0.8-1.2,2-1.8,3.6-1.8c2.5,0,4.2,1.9,4.2,4.3
		C279.2,59,279.1,59.8,278.6,60.6z"/>
	<path class="st0" d="M357.7,60.6C352.6,68,343.3,73,331.5,73c-18.9,0-32.1-13-32.1-32.1s13.1-32.1,32.1-32.1
		c10.8,0,19.6,4.1,25.3,11.3c0.6,0.7,0.9,1.7,0.9,2.8c0,2.5-1.8,4.3-4.3,4.3c-1.6,0-2.8-0.6-3.6-1.8c-4.1-5.4-10.4-8.5-18.3-8.5
		c-13.8,0-23.2,9.8-23.2,24c0,14.2,9.4,24,23.2,24c8.3,0,14.8-3.3,19-9.4c0.8-1.2,2-1.8,3.6-1.8c2.5,0,4.2,1.9,4.2,4.3
		C358.3,59,358.2,59.8,357.7,60.6z"/>
</g>
<g>
	<path class="st0" d="M178.4,100.2v12.7c0,2.9-1.7,4.7-4.4,4.7c-2.7,0-4.4-1.8-4.4-4.7v-4.2h-13v4.3c0,2.9-1.6,4.6-4.3,4.6
		c-2.7,0-4.3-1.7-4.3-4.6v-12.8c0-9.8,5.5-15.4,15.2-15.4C172.9,84.8,178.4,90.4,178.4,100.2z M169.6,99.9c0-4.6-2.3-7.1-6.5-7.1
		c-4.2,0-6.5,2.5-6.5,7.1v1.4h13V99.9z"/>
	<path class="st0" d="M210,110c0.9,1.1,1.3,2.1,1.3,3.2c0,2.7-1.8,4.4-4.3,4.4c-1.5,0-2.7-0.6-3.9-2.2l-6.4-8.7h-5v6.2
		c0,2.9-1.7,4.6-4.4,4.6c-2.7,0-4.4-1.8-4.4-4.6V90c0-2.9,1.8-4.7,4.7-4.7h12.1c7.4,0,11.3,3.5,11.3,10.2c0,4.6-1.8,7.6-5.1,9.2v0.1
		L210,110z M198.7,99.1c2.2,0,3.4-1.1,3.4-3c0-1.8-1.2-2.8-3.4-2.8h-7v5.7H198.7z"/>
	<path class="st0" d="M244.4,111.8c-2.5,3.6-7.4,6.1-13.5,6.1c-10,0-16.8-6.7-16.8-16.5s6.9-16.5,16.8-16.5c5.5,0,10,2,13,5.5
		c0.7,0.9,1,1.8,1,2.9c0,2.5-1.8,4.2-4.2,4.2c-1.5,0-2.8-0.6-3.6-1.7c-1.4-1.8-3.3-2.9-6.1-2.9c-4.7,0-7.9,3.5-7.9,8.5
		s3.2,8.5,7.9,8.5c2.9,0,5-1.2,6.4-3.2c0.8-1.1,2.1-1.9,3.7-1.9c2.6,0,4.2,1.8,4.2,4.2C245.2,110.1,244.9,111,244.4,111.8z"/>
	<path class="st0" d="M278.8,89.7v23.2c0,2.9-1.7,4.7-4.4,4.7c-2.7,0-4.4-1.8-4.4-4.7v-7.7h-13v7.7c0,2.9-1.7,4.7-4.4,4.7
		c-2.7,0-4.4-1.8-4.4-4.7V89.7c0-2.9,1.7-4.7,4.4-4.7c2.7,0,4.4,1.8,4.4,4.7v7.5h13v-7.5c0-2.9,1.7-4.7,4.4-4.7
		C277.2,85.1,278.8,86.8,278.8,89.7z"/>
	<path class="st0" d="M292.6,89.7v23.2c0,2.9-1.7,4.7-4.4,4.7c-2.7,0-4.4-1.8-4.4-4.7V89.7c0-2.9,1.7-4.7,4.4-4.7
		C290.9,85.1,292.6,86.8,292.6,89.7z"/>
	<path class="st0" d="M327.9,89.3c0,0.7-0.2,1.4-0.6,2.3L316.8,114c-1.1,2.4-3,3.6-5.2,3.6c-2.3,0-4.1-1.2-5.2-3.6l-10.6-22.4
		c-0.4-0.9-0.5-1.5-0.5-2.1c0-2.7,1.8-4.4,4.5-4.4c1.9,0,3.2,1,4,2.7l8,17.9h0.1l7.9-17.9c0.8-1.7,2.2-2.7,4-2.7
		C326.2,85.1,327.9,86.7,327.9,89.3z"/>
	<path class="st0" d="M354.2,109.3c2.6,0,4.2,1.5,4.2,4c0,2.5-1.6,4-4.2,4h-19c-2.9,0-4.7-1.8-4.7-4.7V90c0-2.9,1.8-4.7,4.7-4.7h19
		c2.6,0,4.2,1.5,4.2,4s-1.6,4-4.2,4h-14.9v4.1h11.5c2.6,0,4.1,1.4,4.1,3.8c0,2.3-1.5,3.8-4.1,3.8h-11.5v4.2H354.2z"/>
</g>
</svg>
